<?xml version="1.0" standalone="no"?><svg xmlns="http://www.w3.org/2000/svg" viewBox="0 0 1440 320"><path fill="#158467" fill-opacity="1" d="M0,224L21.8,192C43.6,160,87,96,131,69.3C174.5,43,218,53,262,69.3C305.5,85,349,107,393,144C436.4,181,480,235,524,218.7C567.3,203,611,117,655,90.7C698.2,64,742,96,785,133.3C829.1,171,873,213,916,208C960,203,1004,149,1047,149.3C1090.9,149,1135,203,1178,213.3C1221.8,224,1265,192,1309,160C1352.7,128,1396,96,1418,80L1440,64L1440,320L1418.2,320C1396.4,320,1353,320,1309,320C1265.5,320,1222,320,1178,320C1134.5,320,1091,320,1047,320C1003.6,320,960,320,916,320C872.7,320,829,320,785,320C741.8,320,698,320,655,320C610.9,320,567,320,524,320C480,320,436,320,393,320C349.1,320,305,320,262,320C218.2,320,175,320,131,320C87.3,320,44,320,22,320L0,320Z"></path></svg>