<?xml version="1.0" standalone="no"?><svg xmlns="http://www.w3.org/2000/svg" viewBox="0 0 1440 320"><path fill="#28df99" fill-opacity="1" d="M0,128L14.1,106.7C28.2,85,56,43,85,48C112.9,53,141,107,169,144C197.6,181,226,203,254,229.3C282.4,256,311,288,339,277.3C367.1,267,395,213,424,186.7C451.8,160,480,160,508,144C536.5,128,565,96,593,117.3C621.2,139,649,213,678,229.3C705.9,245,734,203,762,154.7C790.6,107,819,53,847,48C875.3,43,904,85,932,117.3C960,149,988,171,1016,165.3C1044.7,160,1073,128,1101,117.3C1129.4,107,1158,117,1186,144C1214.1,171,1242,213,1271,224C1298.8,235,1327,213,1355,208C1383.5,203,1412,213,1426,218.7L1440,224L1440,320L1425.9,320C1411.8,320,1384,320,1355,320C1327.1,320,1299,320,1271,320C1242.4,320,1214,320,1186,320C1157.6,320,1129,320,1101,320C1072.9,320,1045,320,1016,320C988.2,320,960,320,932,320C903.5,320,875,320,847,320C818.8,320,791,320,762,320C734.1,320,706,320,678,320C649.4,320,621,320,593,320C564.7,320,536,320,508,320C480,320,452,320,424,320C395.3,320,367,320,339,320C310.6,320,282,320,254,320C225.9,320,198,320,169,320C141.2,320,113,320,85,320C56.5,320,28,320,14,320L0,320Z"></path></svg>